<svg xmlns="http://www.w3.org/2000/svg" xmlns:xlink="http://www.w3.org/1999/xlink" contentStyleType="text/css" data-diagram-type="SEQUENCE" height="917px" preserveAspectRatio="none" style="width:1189px;height:917px;background:#FAFAFA;" version="1.1" viewBox="0 0 1189 917" width="1189px" zoomAndPan="magnify"><defs/><g><rect fill="#FAFAFA" height="917" style="stroke:none;stroke-width:1;" width="1189" x="0" y="0"/><g><title>Creator UI</title><rect fill="#D9E8F5" height="714.4688" style="stroke:#181818;stroke-width:1;" width="10" x="346.0283" y="112.4297"/></g><g><title>Backend API</title><rect fill="#D9E8F5" height="685.3359" style="stroke:#181818;stroke-width:1;" width="10" x="581.2681" y="141.5625"/></g><g><title>Automated Validator</title><rect fill="#D9E8F5" height="29.1328" style="stroke:#181818;stroke-width:1;" width="10" x="882.7456" y="185.8281"/></g><g><title>Reviewer</title><rect fill="#D9E8F5" height="29.1328" style="stroke:#181818;stroke-width:1;" width="10" x="1011.9063" y="350.625"/></g><g><title>Content DB</title><rect fill="#D9E8F5" height="29.1328" style="stroke:#181818;stroke-width:1;" width="10" x="1104.6372" y="268.2266"/></g><g><title>Content DB</title><rect fill="#D9E8F5" height="29.1328" style="stroke:#181818;stroke-width:1;" width="10" x="1104.6372" y="433.0234"/></g><g><title>Content DB</title><rect fill="#D9E8F5" height="29.1328" style="stroke:#181818;stroke-width:1;" width="10" x="1104.6372" y="644.4297"/></g><rect fill="none" height="589.9375" style="stroke:#C5AF59;stroke-width:1.5;" width="1172.894" x="10" y="229.9609"/><rect fill="none" height="427.4688" style="stroke:#C5AF59;stroke-width:1.5;" width="1152.894" x="20" y="312.3594"/><rect fill="none" height="206.7344" style="stroke:#C5AF59;stroke-width:1.5;" width="1132.894" x="30" y="394.7578"/><g><title>Content Creator</title><rect fill="#000000" fill-opacity="0.00000" height="755.6016" width="8" x="95.3315" y="81.2969"/><line style="stroke:#2F5D8A;stroke-width:0.5;stroke-dasharray:5,5;" x1="99" x2="99" y1="81.2969" y2="836.8984"/></g><g><title>Creator UI</title><rect fill="#000000" fill-opacity="0.00000" height="755.6016" width="8" x="347.0283" y="81.2969"/><line style="stroke:#2F5D8A;stroke-width:0.5;stroke-dasharray:5,5;" x1="350.3481" x2="350.3481" y1="81.2969" y2="836.8984"/></g><g><title>Backend API</title><rect fill="#000000" fill-opacity="0.00000" height="755.6016" width="8" x="582.2681" y="81.2969"/><line style="stroke:#2F5D8A;stroke-width:0.5;stroke-dasharray:5,5;" x1="585.7881" x2="585.7881" y1="81.2969" y2="836.8984"/></g><g><title>Automated Validator</title><rect fill="#000000" fill-opacity="0.00000" height="755.6016" width="8" x="883.7456" y="81.2969"/><line style="stroke:#2F5D8A;stroke-width:0.5;stroke-dasharray:5,5;" x1="887.0591" x2="887.0591" y1="81.2969" y2="836.8984"/></g><g><title>Reviewer</title><rect fill="#000000" fill-opacity="0.00000" height="755.6016" width="8" x="1012.9063" y="81.2969"/><line style="stroke:#2F5D8A;stroke-width:0.5;stroke-dasharray:5,5;" x1="1016.4321" x2="1016.4321" y1="81.2969" y2="836.8984"/></g><g><title>Content DB</title><rect fill="#000000" fill-opacity="0.00000" height="755.6016" width="8" x="1105.6372" y="81.2969"/><line style="stroke:#2F5D8A;stroke-width:0.5;stroke-dasharray:5,5;" x1="1109.3804" x2="1109.3804" y1="81.2969" y2="836.8984"/></g><g class="participant participant-head" data-participant="Creator"><text fill="#000000" font-family="sans-serif" font-size="14" lengthAdjust="spacing" textLength="112.6631" x="40" y="77.9951">Content Creator</text><ellipse cx="99.3315" cy="13.5" fill="#FFF2CC" rx="8" ry="8" style="stroke:#3D3D3D;stroke-width:0.5;"/><path d="M99.3315,21.5 L99.3315,48.5 M86.3315,29.5 L112.3315,29.5 M99.3315,48.5 L86.3315,63.5 M99.3315,48.5 L112.3315,63.5" fill="none" style="stroke:#3D3D3D;stroke-width:0.5;"/></g><g class="participant participant-tail" data-participant="Creator"><text fill="#000000" font-family="sans-serif" font-size="14" lengthAdjust="spacing" textLength="112.6631" x="40" y="848.8936">Content Creator</text><ellipse cx="99.3315" cy="860.6953" fill="#FFF2CC" rx="8" ry="8" style="stroke:#3D3D3D;stroke-width:0.5;"/><path d="M99.3315,868.6953 L99.3315,895.6953 M86.3315,876.6953 L112.3315,876.6953 M99.3315,895.6953 L86.3315,910.6953 M99.3315,895.6953 L112.3315,910.6953" fill="none" style="stroke:#3D3D3D;stroke-width:0.5;"/></g><g class="participant participant-head" data-participant="CUI"><rect fill="#E6F7FF" height="30.2969" rx="2.5" ry="2.5" style="stroke:#1B3C59;stroke-width:0.5;" width="85.3604" x="308.3481" y="50"/><text fill="#000000" font-family="sans-serif" font-size="14" lengthAdjust="spacing" textLength="71.3604" x="315.3481" y="69.9951">Creator UI</text></g><g class="participant participant-tail" data-participant="CUI"><rect fill="#E6F7FF" height="30.2969" rx="2.5" ry="2.5" style="stroke:#1B3C59;stroke-width:0.5;" width="85.3604" x="308.3481" y="835.8984"/><text fill="#000000" font-family="sans-serif" font-size="14" lengthAdjust="spacing" textLength="71.3604" x="315.3481" y="855.8936">Creator UI</text></g><g class="participant participant-head" data-participant="Backend"><rect fill="#FFE6E6" height="30.2969" rx="2.5" ry="2.5" style="stroke:#1B3C59;stroke-width:0.5;" width="100.96" x="535.7881" y="50"/><text fill="#000000" font-family="sans-serif" font-size="14" lengthAdjust="spacing" textLength="86.96" x="542.7881" y="69.9951">Backend API</text></g><g class="participant participant-tail" data-participant="Backend"><rect fill="#FFE6E6" height="30.2969" rx="2.5" ry="2.5" style="stroke:#1B3C59;stroke-width:0.5;" width="100.96" x="535.7881" y="835.8984"/><text fill="#000000" font-family="sans-serif" font-size="14" lengthAdjust="spacing" textLength="86.96" x="542.7881" y="855.8936">Backend API</text></g><g class="participant participant-head" data-participant="Validator"><rect fill="#F0E6FF" height="30.2969" rx="2.5" ry="2.5" style="stroke:#1B3C59;stroke-width:0.5;" width="159.373" x="808.0591" y="50"/><text fill="#000000" font-family="sans-serif" font-size="14" lengthAdjust="spacing" textLength="145.373" x="815.0591" y="69.9951">Automated Validator</text></g><g class="participant participant-tail" data-participant="Validator"><rect fill="#F0E6FF" height="30.2969" rx="2.5" ry="2.5" style="stroke:#1B3C59;stroke-width:0.5;" width="159.373" x="808.0591" y="835.8984"/><text fill="#000000" font-family="sans-serif" font-size="14" lengthAdjust="spacing" textLength="145.373" x="815.0591" y="855.8936">Automated Validator</text></g><g class="participant participant-head" data-participant="Reviewer"><rect fill="#FFF2CC" height="30.2969" rx="2.5" ry="2.5" style="stroke:#1B3C59;stroke-width:0.5;" width="78.9482" x="977.4321" y="50"/><text fill="#000000" font-family="sans-serif" font-size="14" lengthAdjust="spacing" textLength="64.9482" x="984.4321" y="69.9951">Reviewer</text></g><g class="participant participant-tail" data-participant="Reviewer"><rect fill="#FFF2CC" height="30.2969" rx="2.5" ry="2.5" style="stroke:#1B3C59;stroke-width:0.5;" width="78.9482" x="977.4321" y="835.8984"/><text fill="#000000" font-family="sans-serif" font-size="14" lengthAdjust="spacing" textLength="64.9482" x="984.4321" y="855.8936">Reviewer</text></g><g class="participant participant-head" data-participant="CDB"><text fill="#000000" font-family="sans-serif" font-size="14" lengthAdjust="spacing" textLength="80.5137" x="1066.3804" y="77.9951">Content DB</text><path d="M1091.6372,29 C1091.6372,19 1109.6372,19 1109.6372,19 C1109.6372,19 1127.6372,19 1127.6372,29 L1127.6372,55 C1127.6372,65 1109.6372,65 1109.6372,65 C1109.6372,65 1091.6372,65 1091.6372,55 L1091.6372,29" fill="#E6FFE6" style="stroke:#181818;stroke-width:0.5;"/><path d="M1091.6372,29 C1091.6372,39 1109.6372,39 1109.6372,39 C1109.6372,39 1127.6372,39 1127.6372,29" fill="none" style="stroke:#181818;stroke-width:0.5;"/></g><g class="participant participant-tail" data-participant="CDB"><text fill="#000000" font-family="sans-serif" font-size="14" lengthAdjust="spacing" textLength="80.5137" x="1066.3804" y="848.8936">Content DB</text><path d="M1091.6372,862.1953 C1091.6372,852.1953 1109.6372,852.1953 1109.6372,852.1953 C1109.6372,852.1953 1127.6372,852.1953 1127.6372,862.1953 L1127.6372,888.1953 C1127.6372,898.1953 1109.6372,898.1953 1109.6372,898.1953 C1109.6372,898.1953 1091.6372,898.1953 1091.6372,888.1953 L1091.6372,862.1953" fill="#E6FFE6" style="stroke:#181818;stroke-width:0.5;"/><path d="M1091.6372,862.1953 C1091.6372,872.1953 1109.6372,872.1953 1109.6372,872.1953 C1109.6372,872.1953 1127.6372,872.1953 1127.6372,862.1953" fill="none" style="stroke:#181818;stroke-width:0.5;"/></g><g><title>Creator UI</title><rect fill="#D9E8F5" height="714.4688" style="stroke:#181818;stroke-width:1;" width="10" x="346.0283" y="112.4297"/></g><g><title>Backend API</title><rect fill="#D9E8F5" height="685.3359" style="stroke:#181818;stroke-width:1;" width="10" x="581.2681" y="141.5625"/></g><g><title>Automated Validator</title><rect fill="#D9E8F5" height="29.1328" style="stroke:#181818;stroke-width:1;" width="10" x="882.7456" y="185.8281"/></g><g><title>Reviewer</title><rect fill="#D9E8F5" height="29.1328" style="stroke:#181818;stroke-width:1;" width="10" x="1011.9063" y="350.625"/></g><g><title>Content DB</title><rect fill="#D9E8F5" height="29.1328" style="stroke:#181818;stroke-width:1;" width="10" x="1104.6372" y="268.2266"/></g><g><title>Content DB</title><rect fill="#D9E8F5" height="29.1328" style="stroke:#181818;stroke-width:1;" width="10" x="1104.6372" y="433.0234"/></g><g><title>Content DB</title><rect fill="#D9E8F5" height="29.1328" style="stroke:#181818;stroke-width:1;" width="10" x="1104.6372" y="644.4297"/></g><g class="message" data-participant-1="Creator" data-participant-2="CUI"><polygon fill="#2F5D8A" points="334.0283,108.4297,344.0283,112.4297,334.0283,116.4297,338.0283,112.4297" style="stroke:#2F5D8A;stroke-width:1;"/><line style="stroke:#2F5D8A;stroke-width:1;" x1="99.3315" x2="340.0283" y1="112.4297" y2="112.4297"/><text fill="#000000" font-family="sans-serif" font-size="13" lengthAdjust="spacing" textLength="227.6968" x="106.3315" y="107.3638">Click Publish exercise {exerciseId}</text></g><g class="message" data-participant-1="CUI" data-participant-2="Backend"><polygon fill="#2F5D8A" points="569.2681,137.5625,579.2681,141.5625,569.2681,145.5625,573.2681,141.5625" style="stroke:#2F5D8A;stroke-width:1;"/><line style="stroke:#2F5D8A;stroke-width:1;" x1="356.0283" x2="575.2681" y1="141.5625" y2="141.5625"/><text fill="#000000" font-family="sans-serif" font-size="13" lengthAdjust="spacing" textLength="188.2588" x="363.0283" y="136.4966">POST /exercises/{id}/publish</text></g><g class="message" data-participant-1="Backend" data-participant-2="Validator"><polygon fill="#2F5D8A" points="870.7456,181.8281,880.7456,185.8281,870.7456,189.8281,874.7456,185.8281" style="stroke:#2F5D8A;stroke-width:1;"/><line style="stroke:#2F5D8A;stroke-width:1;" x1="591.2681" x2="876.7456" y1="185.8281" y2="185.8281"/><text fill="#000000" font-family="sans-serif" font-size="13" lengthAdjust="spacing" textLength="117.8188" x="598.2681" y="165.6294">Run full validation</text><text fill="#000000" font-family="sans-serif" font-size="13" lengthAdjust="spacing" textLength="212.4434" x="598.2681" y="180.7622">(testcases, constraints, security)</text></g><g class="message" data-participant-1="Validator" data-participant-2="Backend"><polygon fill="#2F5D8A" points="602.2681,210.9609,592.2681,214.9609,602.2681,218.9609,598.2681,214.9609" style="stroke:#2F5D8A;stroke-width:1;"/><line style="stroke:#2F5D8A;stroke-width:1;stroke-dasharray:2,2;" x1="596.2681" x2="886.7456" y1="214.9609" y2="214.9609"/><text fill="#000000" font-family="sans-serif" font-size="13" lengthAdjust="spacing" textLength="267.4775" x="608.2681" y="209.895">validationResult {pass/warn/fail, details}</text></g><path d="M10,229.9609 L74.4429,229.9609 L74.4429,237.0938 L64.4429,247.0938 L10,247.0938 L10,229.9609" fill="#F7F0D3" style="stroke:#C5AF59;stroke-width:1.5;"/><rect fill="none" height="589.9375" style="stroke:#C5AF59;stroke-width:1.5;" width="1172.894" x="10" y="229.9609"/><text fill="#000000" font-family="sans-serif" font-size="13" font-weight="bold" lengthAdjust="spacing" textLength="19.4429" x="25" y="243.0278">alt</text><text fill="#000000" font-family="sans-serif" font-size="11" font-weight="bold" lengthAdjust="spacing" textLength="120.9893" x="89.4429" y="242.1714">[Validation Passed]</text><g class="message" data-participant-1="Backend" data-participant-2="CDB"><polygon fill="#2F5D8A" points="1092.6372,264.2266,1102.6372,268.2266,1092.6372,272.2266,1096.6372,268.2266" style="stroke:#2F5D8A;stroke-width:1;"/><line style="stroke:#2F5D8A;stroke-width:1;" x1="591.2681" x2="1098.6372" y1="268.2266" y2="268.2266"/><text fill="#000000" font-family="sans-serif" font-size="13" lengthAdjust="spacing" textLength="214.5698" x="598.2681" y="263.1606">Mark exercise as pending-review</text></g><g class="message" data-participant-1="CDB" data-participant-2="Backend"><polygon fill="#2F5D8A" points="602.2681,293.3594,592.2681,297.3594,602.2681,301.3594,598.2681,297.3594" style="stroke:#2F5D8A;stroke-width:1;"/><line style="stroke:#2F5D8A;stroke-width:1;stroke-dasharray:2,2;" x1="596.2681" x2="1108.6372" y1="297.3594" y2="297.3594"/><text fill="#000000" font-family="sans-serif" font-size="13" lengthAdjust="spacing" textLength="18.7573" x="608.2681" y="292.2935">OK</text></g><path d="M20,312.3594 L84.4429,312.3594 L84.4429,319.4922 L74.4429,329.4922 L20,329.4922 L20,312.3594" fill="#F7F0D3" style="stroke:#C5AF59;stroke-width:1.5;"/><rect fill="none" height="427.4688" style="stroke:#C5AF59;stroke-width:1.5;" width="1152.894" x="20" y="312.3594"/><text fill="#000000" font-family="sans-serif" font-size="13" font-weight="bold" lengthAdjust="spacing" textLength="19.4429" x="35" y="325.4263">alt</text><text fill="#000000" font-family="sans-serif" font-size="11" font-weight="bold" lengthAdjust="spacing" textLength="163.5981" x="99.4429" y="324.5698">[Manual Review Required]</text><g class="message" data-participant-1="Backend" data-participant-2="Reviewer"><polygon fill="#2F5D8A" points="999.9063,346.625,1009.9063,350.625,999.9063,354.625,1003.9063,350.625" style="stroke:#2F5D8A;stroke-width:1;"/><line style="stroke:#2F5D8A;stroke-width:1;" x1="591.2681" x2="1005.9063" y1="350.625" y2="350.625"/><text fill="#000000" font-family="sans-serif" font-size="13" lengthAdjust="spacing" textLength="208.7744" x="598.2681" y="345.5591">Assign review task {exerciseId}</text></g><g class="message" data-participant-1="Reviewer" data-participant-2="Backend"><polygon fill="#2F5D8A" points="602.2681,375.7578,592.2681,379.7578,602.2681,383.7578,598.2681,379.7578" style="stroke:#2F5D8A;stroke-width:1;"/><line style="stroke:#2F5D8A;stroke-width:1;stroke-dasharray:2,2;" x1="596.2681" x2="1015.9063" y1="379.7578" y2="379.7578"/><text fill="#000000" font-family="sans-serif" font-size="13" lengthAdjust="spacing" textLength="276.542" x="608.2681" y="374.6919">reviewResult {approve/reject, comments}</text></g><path d="M30,394.7578 L94.4429,394.7578 L94.4429,401.8906 L84.4429,411.8906 L30,411.8906 L30,394.7578" fill="#F7F0D3" style="stroke:#C5AF59;stroke-width:1.5;"/><rect fill="none" height="206.7344" style="stroke:#C5AF59;stroke-width:1.5;" width="1132.894" x="30" y="394.7578"/><text fill="#000000" font-family="sans-serif" font-size="13" font-weight="bold" lengthAdjust="spacing" textLength="19.4429" x="45" y="407.8247">alt</text><text fill="#000000" font-family="sans-serif" font-size="11" font-weight="bold" lengthAdjust="spacing" textLength="149.8857" x="109.4429" y="406.9683">[Approved by Reviewer]</text><g class="message" data-participant-1="Backend" data-participant-2="CDB"><polygon fill="#2F5D8A" points="1092.6372,429.0234,1102.6372,433.0234,1092.6372,437.0234,1096.6372,433.0234" style="stroke:#2F5D8A;stroke-width:1;"/><line style="stroke:#2F5D8A;stroke-width:1;" x1="591.2681" x2="1098.6372" y1="433.0234" y2="433.0234"/><text fill="#000000" font-family="sans-serif" font-size="13" lengthAdjust="spacing" textLength="176.9854" x="598.2681" y="427.9575">Mark exercise as published</text></g><g class="message" data-participant-1="CDB" data-participant-2="Backend"><polygon fill="#2F5D8A" points="602.2681,458.1563,592.2681,462.1563,602.2681,466.1563,598.2681,462.1563" style="stroke:#2F5D8A;stroke-width:1;"/><line style="stroke:#2F5D8A;stroke-width:1;stroke-dasharray:2,2;" x1="596.2681" x2="1108.6372" y1="462.1563" y2="462.1563"/><text fill="#000000" font-family="sans-serif" font-size="13" lengthAdjust="spacing" textLength="18.7573" x="608.2681" y="457.0903">OK</text></g><g class="message" data-participant-1="Backend" data-participant-2="CUI"><polygon fill="#2F5D8A" points="367.0283,487.2891,357.0283,491.2891,367.0283,495.2891,363.0283,491.2891" style="stroke:#2F5D8A;stroke-width:1;"/><line style="stroke:#2F5D8A;stroke-width:1;stroke-dasharray:2,2;" x1="361.0283" x2="580.2681" y1="491.2891" y2="491.2891"/><text fill="#000000" font-family="sans-serif" font-size="13" lengthAdjust="spacing" textLength="91.7617" x="373.0283" y="486.2231">200 Published</text></g><g class="message" data-participant-1="CUI" data-participant-2="Creator"><polygon fill="#2F5D8A" points="110.3315,516.4219,100.3315,520.4219,110.3315,524.4219,106.3315,520.4219" style="stroke:#2F5D8A;stroke-width:1;"/><line style="stroke:#2F5D8A;stroke-width:1;stroke-dasharray:2,2;" x1="104.3315" x2="345.0283" y1="520.4219" y2="520.4219"/><text fill="#000000" font-family="sans-serif" font-size="13" lengthAdjust="spacing" textLength="204.8579" x="116.3315" y="515.356">Exercise published successfully</text></g><line style="stroke:#C5AF59;stroke-width:1;stroke-dasharray:2,2;" x1="30" x2="1162.894" y1="529.4219" y2="529.4219"/><text fill="#000000" font-family="sans-serif" font-size="11" font-weight="bold" lengthAdjust="spacing" textLength="144.4126" x="35" y="539.6323">[Rejected by Reviewer]</text><g class="message" data-participant-1="Backend" data-participant-2="CUI"><polygon fill="#2F5D8A" points="367.0283,560.3594,357.0283,564.3594,367.0283,568.3594,363.0283,564.3594" style="stroke:#2F5D8A;stroke-width:1;"/><line style="stroke:#2F5D8A;stroke-width:1;stroke-dasharray:2,2;" x1="361.0283" x2="580.2681" y1="564.3594" y2="564.3594"/><text fill="#000000" font-family="sans-serif" font-size="13" lengthAdjust="spacing" textLength="175.2905" x="373.0283" y="559.2935">400 Rejected {comments}</text></g><g class="message" data-participant-1="CUI" data-participant-2="Creator"><polygon fill="#2F5D8A" points="110.3315,589.4922,100.3315,593.4922,110.3315,597.4922,106.3315,593.4922" style="stroke:#2F5D8A;stroke-width:1;"/><line style="stroke:#2F5D8A;stroke-width:1;stroke-dasharray:2,2;" x1="104.3315" x2="345.0283" y1="593.4922" y2="593.4922"/><text fill="#000000" font-family="sans-serif" font-size="13" lengthAdjust="spacing" textLength="151.3916" x="116.3315" y="588.4263">Show rejection reasons</text></g><line style="stroke:#C5AF59;stroke-width:1;stroke-dasharray:2,2;" x1="20" x2="1172.894" y1="609.4922" y2="609.4922"/><text fill="#000000" font-family="sans-serif" font-size="11" font-weight="bold" lengthAdjust="spacing" textLength="283.5078" x="25" y="619.7026">[Auto-approved (no manual review required)]</text><g class="message" data-participant-1="Backend" data-participant-2="CDB"><polygon fill="#2F5D8A" points="1092.6372,640.4297,1102.6372,644.4297,1092.6372,648.4297,1096.6372,644.4297" style="stroke:#2F5D8A;stroke-width:1;"/><line style="stroke:#2F5D8A;stroke-width:1;" x1="591.2681" x2="1098.6372" y1="644.4297" y2="644.4297"/><text fill="#000000" font-family="sans-serif" font-size="13" lengthAdjust="spacing" textLength="176.9854" x="598.2681" y="639.3638">Mark exercise as published</text></g><g class="message" data-participant-1="CDB" data-participant-2="Backend"><polygon fill="#2F5D8A" points="602.2681,669.5625,592.2681,673.5625,602.2681,677.5625,598.2681,673.5625" style="stroke:#2F5D8A;stroke-width:1;"/><line style="stroke:#2F5D8A;stroke-width:1;stroke-dasharray:2,2;" x1="596.2681" x2="1108.6372" y1="673.5625" y2="673.5625"/><text fill="#000000" font-family="sans-serif" font-size="13" lengthAdjust="spacing" textLength="18.7573" x="608.2681" y="668.4966">OK</text></g><g class="message" data-participant-1="Backend" data-participant-2="CUI"><polygon fill="#2F5D8A" points="367.0283,698.6953,357.0283,702.6953,367.0283,706.6953,363.0283,702.6953" style="stroke:#2F5D8A;stroke-width:1;"/><line style="stroke:#2F5D8A;stroke-width:1;stroke-dasharray:2,2;" x1="361.0283" x2="580.2681" y1="702.6953" y2="702.6953"/><text fill="#000000" font-family="sans-serif" font-size="13" lengthAdjust="spacing" textLength="91.7617" x="373.0283" y="697.6294">200 Published</text></g><g class="message" data-participant-1="CUI" data-participant-2="Creator"><polygon fill="#2F5D8A" points="110.3315,727.8281,100.3315,731.8281,110.3315,735.8281,106.3315,731.8281" style="stroke:#2F5D8A;stroke-width:1;"/><line style="stroke:#2F5D8A;stroke-width:1;stroke-dasharray:2,2;" x1="104.3315" x2="345.0283" y1="731.8281" y2="731.8281"/><text fill="#000000" font-family="sans-serif" font-size="13" lengthAdjust="spacing" textLength="204.8579" x="116.3315" y="726.7622">Exercise published successfully</text></g><line style="stroke:#C5AF59;stroke-width:1;stroke-dasharray:2,2;" x1="10" x2="1182.894" y1="747.8281" y2="747.8281"/><text fill="#000000" font-family="sans-serif" font-size="11" font-weight="bold" lengthAdjust="spacing" textLength="114.8877" x="15" y="758.0386">[Validation Failed]</text><g class="message" data-participant-1="Backend" data-participant-2="CUI"><polygon fill="#2F5D8A" points="367.0283,778.7656,357.0283,782.7656,367.0283,786.7656,363.0283,782.7656" style="stroke:#2F5D8A;stroke-width:1;"/><line style="stroke:#2F5D8A;stroke-width:1;stroke-dasharray:2,2;" x1="361.0283" x2="580.2681" y1="782.7656" y2="782.7656"/><text fill="#000000" font-family="sans-serif" font-size="13" lengthAdjust="spacing" textLength="201.2397" x="373.0283" y="777.6997">400 Validation Errors {details}</text></g><g class="message" data-participant-1="CUI" data-participant-2="Creator"><polygon fill="#2F5D8A" points="110.3315,807.8984,100.3315,811.8984,110.3315,815.8984,106.3315,811.8984" style="stroke:#2F5D8A;stroke-width:1;"/><line style="stroke:#2F5D8A;stroke-width:1;stroke-dasharray:2,2;" x1="104.3315" x2="345.0283" y1="811.8984" y2="811.8984"/><text fill="#000000" font-family="sans-serif" font-size="13" lengthAdjust="spacing" textLength="158.9453" x="116.3315" y="806.8325">Display validation errors</text></g><!--SRC=[dLLTRzem57tthxZgNbgf24P7r_8mAIHaGcjLHDS-xSKaRkiHdDHse0ZnttST9qu2TAfA7XBRzvnxxfTH2ouoAkaIvZHQFCiq5x6V9gc4Bw5d7gASXMAlEHCHWoq1yAHCrwLbFnm4Lnvktl0dTiC56wKoPlBTqtrFmVNuAXoWnPHApIEUKQ5R55z75_xWUizWdsLyEHuNB5waKzd2NmJcSKS7aVRDWyS_SJSxFFuUze8BTzmazWTUYC9sX53332T-AZGJ6dp9A6wS05NLDnA5OT_tILO7WO3oy65YRHyc9X9q6RRjZ2ecOl2crh1Q8oa6VjaszdATBgbcCJpIXCTEYLiXh8TUzdpCs8gpDREsrSB9HY2TKyNg88EHrHoC2iqeX90gdiwF8fOX-0cF5Z3DvmbNBy3Uc8muacohhqcyCydZAzHh84Y1E8HN4GvXUdV_6xeLG7MtFDvrCyjOOqjxGYeWSjG13s6M2tZAamHMTfEdueyurKpf2ADIvn2bGcb9kT2uK2pA9TURizg18oCrRQSbj6QUCPKd6hOPLQgxfb9qdoXFpY5c6jzgHs9sX9TGn3mw4cntfLYCdTS8oMHx2BTKBkfaOX4oFERYkIEBiY6apcammgM1jSNU_SBjXWnZPt0euPQAd2Pb2-3hDUUoqD5IuZfa29vI_5c0TGwQgaMxm0Rf75MuOjUHjCLPfYgBDCjakc9ToVwoI9jABPVOWCeIDs9mrDOZOZqBZM6-QJl-K59jZvMX7-JK_Dx9wvwkChSjhsv2-hrUDH_EKp43ng8Sfo6CArrE5AWyYfXIfgat1OubokJ09Ed_4JlVtz2t0spRUJsculubNOCjWsbGt5SuDTQvCE8B2UR-wT0gywSYXQNjgB91PDbHP-GpTJYemhirE5Q1Z-J_CzalhfuY-iO0XpZixG5kPRvXESR_KwbWwow8Ooe2hhA4RXht3B02HmhlZN2hox2PWOV9Fm00]--></g></svg>