<svg xmlns="http://www.w3.org/2000/svg" xmlns:xlink="http://www.w3.org/1999/xlink" contentStyleType="text/css" data-diagram-type="SEQUENCE" height="1160px" preserveAspectRatio="none" style="width:816px;height:1160px;background:#FAFAFA;" version="1.1" viewBox="0 0 816 1160" width="816px" zoomAndPan="magnify"><title>**Practice Coding with Monaco Editor**</title><defs/><g><rect fill="#FAFAFA" height="1160" style="stroke:none;stroke-width:1;" width="816" x="0" y="0"/><text fill="#000000" font-family="sans-serif" font-size="14" font-weight="bold" lengthAdjust="spacing" textLength="281.2646" x="269.3005" y="27.9951">Practice Coding with Monaco Editor</text><g><title>Web UI</title><rect fill="#D9E8F5" height="164.7969" style="stroke:#181818;stroke-width:1;" width="10" x="242.7754" y="149.7266"/></g><g><title>Web UI</title><rect fill="#D9E8F5" height="318.1328" style="stroke:#181818;stroke-width:1;" width="10" x="242.7754" y="459.8594"/></g><g><title>Web UI</title><rect fill="#D9E8F5" height="262.1953" style="stroke:#181818;stroke-width:1;" width="10" x="242.7754" y="799.125"/></g><g><title>Monaco</title><rect fill="#D9E8F5" height="29.1328" style="stroke:#181818;stroke-width:1;" width="10" x="365.9048" y="285.3906"/></g><g><title>Backend API</title><rect fill="#D9E8F5" height="77.3984" style="stroke:#181818;stroke-width:1;" width="10" x="460.5645" y="178.8594"/></g><g><title>Backend API</title><rect fill="#D9E8F5" height="289" style="stroke:#181818;stroke-width:1;" width="10" x="460.5645" y="488.9922"/></g><g><title>Backend API</title><rect fill="#D9E8F5" height="203.9297" style="stroke:#181818;stroke-width:1;" width="10" x="460.5645" y="828.2578"/></g><g><title>Code Runner</title><rect fill="#D9E8F5" height="259.8672" style="stroke:#181818;stroke-width:1;" width="10" x="675.5615" y="518.125"/></g><g><title>Code Runner</title><rect fill="#D9E8F5" height="29.1328" style="stroke:#181818;stroke-width:1;" width="10" x="675.5615" y="857.3906"/></g><g><title>Database</title><rect fill="#D9E8F5" height="29.1328" style="stroke:#181818;stroke-width:1;" width="10" x="774.4653" y="915.6563"/></g><g><title>Database</title><rect fill="#D9E8F5" height="29.1328" style="stroke:#181818;stroke-width:1;" width="10" x="774.4653" y="973.9219"/></g><rect fill="none" height="237.8672" style="stroke:#C5AF59;stroke-width:1.5;" width="526.0444" x="10" y="193.8594"/><rect fill="none" height="206.7344" style="stroke:#C5AF59;stroke-width:1.5;" width="506.0444" x="20" y="217.9922"/><rect fill="none" height="237.8672" style="stroke:#C5AF59;stroke-width:1.5;" width="569.3062" x="183.7588" y="533.125"/><rect fill="none" height="206.7344" style="stroke:#C5AF59;stroke-width:1.5;" width="549.3062" x="193.7588" y="557.2578"/><g><title>Learner</title><rect fill="#000000" fill-opacity="0.00000" height="960.7266" width="8" x="55.9951" y="118.5938"/><line style="stroke:#2F5D8A;stroke-width:0.5;stroke-dasharray:5,5;" x1="59" x2="59" y1="118.5938" y2="1079.3203"/></g><g><title>Web UI</title><rect fill="#000000" fill-opacity="0.00000" height="960.7266" width="8" x="243.7754" y="118.5938"/><line style="stroke:#2F5D8A;stroke-width:0.5;stroke-dasharray:5,5;" x1="247.7588" x2="247.7588" y1="118.5938" y2="1079.3203"/></g><g><title>Monaco</title><rect fill="#000000" fill-opacity="0.00000" height="960.7266" width="8" x="366.9048" y="118.5938"/><line style="stroke:#2F5D8A;stroke-width:0.5;stroke-dasharray:5,5;" x1="370.7251" x2="370.7251" y1="118.5938" y2="1079.3203"/></g><g><title>Backend API</title><rect fill="#000000" fill-opacity="0.00000" height="960.7266" width="8" x="461.5645" y="118.5938"/><line style="stroke:#2F5D8A;stroke-width:0.5;stroke-dasharray:5,5;" x1="465.0845" x2="465.0845" y1="118.5938" y2="1079.3203"/></g><g><title>Code Runner</title><rect fill="#000000" fill-opacity="0.00000" height="960.7266" width="8" x="676.5615" y="118.5938"/><line style="stroke:#2F5D8A;stroke-width:0.5;stroke-dasharray:5,5;" x1="680.0581" x2="680.0581" y1="118.5938" y2="1079.3203"/></g><g><title>Database</title><rect fill="#000000" fill-opacity="0.00000" height="960.7266" width="8" x="775.4653" y="118.5938"/><line style="stroke:#2F5D8A;stroke-width:0.5;stroke-dasharray:5,5;" x1="779.0649" x2="779.0649" y1="118.5938" y2="1079.3203"/></g><g class="participant participant-head" data-participant="Learner"><text fill="#000000" font-family="sans-serif" font-size="14" lengthAdjust="spacing" textLength="53.9902" x="30" y="115.292">Learner</text><ellipse cx="59.9951" cy="50.7969" fill="#FFF2CC" rx="8" ry="8" style="stroke:#3D3D3D;stroke-width:0.5;"/><path d="M59.9951,58.7969 L59.9951,85.7969 M46.9951,66.7969 L72.9951,66.7969 M59.9951,85.7969 L46.9951,100.7969 M59.9951,85.7969 L72.9951,100.7969" fill="none" style="stroke:#3D3D3D;stroke-width:0.5;"/></g><g class="participant participant-tail" data-participant="Learner"><text fill="#000000" font-family="sans-serif" font-size="14" lengthAdjust="spacing" textLength="53.9902" x="30" y="1091.3154">Learner</text><ellipse cx="59.9951" cy="1103.1172" fill="#FFF2CC" rx="8" ry="8" style="stroke:#3D3D3D;stroke-width:0.5;"/><path d="M59.9951,1111.1172 L59.9951,1138.1172 M46.9951,1119.1172 L72.9951,1119.1172 M59.9951,1138.1172 L46.9951,1153.1172 M59.9951,1138.1172 L72.9951,1153.1172" fill="none" style="stroke:#3D3D3D;stroke-width:0.5;"/></g><g class="participant participant-head" data-participant="WebUI"><rect fill="#E6F7FF" height="46.5938" rx="2.5" ry="2.5" style="stroke:#1B3C59;stroke-width:0.5;" width="88.0332" x="203.7588" y="71"/><text fill="#000000" font-family="sans-serif" font-size="14" lengthAdjust="spacing" textLength="50.1689" x="222.6909" y="90.9951">Web UI</text><text fill="#000000" font-family="sans-serif" font-size="14" lengthAdjust="spacing" textLength="74.0332" x="210.7588" y="107.292">(Frontend)</text></g><g class="participant participant-tail" data-participant="WebUI"><rect fill="#E6F7FF" height="46.5938" rx="2.5" ry="2.5" style="stroke:#1B3C59;stroke-width:0.5;" width="88.0332" x="203.7588" y="1078.3203"/><text fill="#000000" font-family="sans-serif" font-size="14" lengthAdjust="spacing" textLength="50.1689" x="222.6909" y="1098.3154">Web UI</text><text fill="#000000" font-family="sans-serif" font-size="14" lengthAdjust="spacing" textLength="74.0332" x="210.7588" y="1114.6123">(Frontend)</text></g><g class="participant participant-head" data-participant="Monaco"><rect fill="#F0E6FF" height="46.5938" rx="2.5" ry="2.5" style="stroke:#1B3C59;stroke-width:0.5;" width="68.3594" x="336.7251" y="71"/><text fill="#000000" font-family="sans-serif" font-size="14" lengthAdjust="spacing" textLength="54.3594" x="343.7251" y="90.9951">Monaco</text><text fill="#000000" font-family="sans-serif" font-size="14" lengthAdjust="spacing" textLength="41.4326" x="350.1885" y="107.292">Editor</text></g><g class="participant participant-tail" data-participant="Monaco"><rect fill="#F0E6FF" height="46.5938" rx="2.5" ry="2.5" style="stroke:#1B3C59;stroke-width:0.5;" width="68.3594" x="336.7251" y="1078.3203"/><text fill="#000000" font-family="sans-serif" font-size="14" lengthAdjust="spacing" textLength="54.3594" x="343.7251" y="1098.3154">Monaco</text><text fill="#000000" font-family="sans-serif" font-size="14" lengthAdjust="spacing" textLength="41.4326" x="350.1885" y="1114.6123">Editor</text></g><g class="participant participant-head" data-participant="Backend"><rect fill="#FFE6E6" height="30.2969" rx="2.5" ry="2.5" style="stroke:#1B3C59;stroke-width:0.5;" width="100.96" x="415.0845" y="87.2969"/><text fill="#000000" font-family="sans-serif" font-size="14" lengthAdjust="spacing" textLength="86.96" x="422.0845" y="107.292">Backend API</text></g><g class="participant participant-tail" data-participant="Backend"><rect fill="#FFE6E6" height="30.2969" rx="2.5" ry="2.5" style="stroke:#1B3C59;stroke-width:0.5;" width="100.96" x="415.0845" y="1078.3203"/><text fill="#000000" font-family="sans-serif" font-size="14" lengthAdjust="spacing" textLength="86.96" x="422.0845" y="1098.3154">Backend API</text></g><g class="participant participant-head" data-participant="Runner"><rect fill="#FFF0CC" height="46.5938" rx="2.5" ry="2.5" style="stroke:#1B3C59;stroke-width:0.5;" width="105.0068" x="628.0581" y="71"/><text fill="#000000" font-family="sans-serif" font-size="14" lengthAdjust="spacing" textLength="91.0068" x="635.0581" y="90.9951">Code Runner</text><text fill="#000000" font-family="sans-serif" font-size="14" lengthAdjust="spacing" textLength="51.7412" x="654.6909" y="107.292">Service</text></g><g class="participant participant-tail" data-participant="Runner"><rect fill="#FFF0CC" height="46.5938" rx="2.5" ry="2.5" style="stroke:#1B3C59;stroke-width:0.5;" width="105.0068" x="628.0581" y="1078.3203"/><text fill="#000000" font-family="sans-serif" font-size="14" lengthAdjust="spacing" textLength="91.0068" x="635.0581" y="1098.3154">Code Runner</text><text fill="#000000" font-family="sans-serif" font-size="14" lengthAdjust="spacing" textLength="51.7412" x="654.6909" y="1114.6123">Service</text></g><g class="participant participant-head" data-participant="DB"><text fill="#000000" font-family="sans-serif" font-size="14" lengthAdjust="spacing" textLength="66.8008" x="743.0649" y="115.292">Database</text><path d="M761.4653,66.2969 C761.4653,56.2969 779.4653,56.2969 779.4653,56.2969 C779.4653,56.2969 797.4653,56.2969 797.4653,66.2969 L797.4653,92.2969 C797.4653,102.2969 779.4653,102.2969 779.4653,102.2969 C779.4653,102.2969 761.4653,102.2969 761.4653,92.2969 L761.4653,66.2969" fill="#E6FFE6" style="stroke:#181818;stroke-width:0.5;"/><path d="M761.4653,66.2969 C761.4653,76.2969 779.4653,76.2969 779.4653,76.2969 C779.4653,76.2969 797.4653,76.2969 797.4653,66.2969" fill="none" style="stroke:#181818;stroke-width:0.5;"/></g><g class="participant participant-tail" data-participant="DB"><text fill="#000000" font-family="sans-serif" font-size="14" lengthAdjust="spacing" textLength="66.8008" x="743.0649" y="1091.3154">Database</text><path d="M761.4653,1104.6172 C761.4653,1094.6172 779.4653,1094.6172 779.4653,1094.6172 C779.4653,1094.6172 797.4653,1094.6172 797.4653,1104.6172 L797.4653,1130.6172 C797.4653,1140.6172 779.4653,1140.6172 779.4653,1140.6172 C779.4653,1140.6172 761.4653,1140.6172 761.4653,1130.6172 L761.4653,1104.6172" fill="#E6FFE6" style="stroke:#181818;stroke-width:0.5;"/><path d="M761.4653,1104.6172 C761.4653,1114.6172 779.4653,1114.6172 779.4653,1114.6172 C779.4653,1114.6172 797.4653,1114.6172 797.4653,1104.6172" fill="none" style="stroke:#181818;stroke-width:0.5;"/></g><g><title>Web UI</title><rect fill="#D9E8F5" height="164.7969" style="stroke:#181818;stroke-width:1;" width="10" x="242.7754" y="149.7266"/></g><g><title>Web UI</title><rect fill="#D9E8F5" height="318.1328" style="stroke:#181818;stroke-width:1;" width="10" x="242.7754" y="459.8594"/></g><g><title>Web UI</title><rect fill="#D9E8F5" height="262.1953" style="stroke:#181818;stroke-width:1;" width="10" x="242.7754" y="799.125"/></g><g><title>Monaco</title><rect fill="#D9E8F5" height="29.1328" style="stroke:#181818;stroke-width:1;" width="10" x="365.9048" y="285.3906"/></g><g><title>Backend API</title><rect fill="#D9E8F5" height="77.3984" style="stroke:#181818;stroke-width:1;" width="10" x="460.5645" y="178.8594"/></g><g><title>Backend API</title><rect fill="#D9E8F5" height="289" style="stroke:#181818;stroke-width:1;" width="10" x="460.5645" y="488.9922"/></g><g><title>Backend API</title><rect fill="#D9E8F5" height="203.9297" style="stroke:#181818;stroke-width:1;" width="10" x="460.5645" y="828.2578"/></g><g><title>Code Runner</title><rect fill="#D9E8F5" height="259.8672" style="stroke:#181818;stroke-width:1;" width="10" x="675.5615" y="518.125"/></g><g><title>Code Runner</title><rect fill="#D9E8F5" height="29.1328" style="stroke:#181818;stroke-width:1;" width="10" x="675.5615" y="857.3906"/></g><g><title>Database</title><rect fill="#D9E8F5" height="29.1328" style="stroke:#181818;stroke-width:1;" width="10" x="774.4653" y="915.6563"/></g><g><title>Database</title><rect fill="#D9E8F5" height="29.1328" style="stroke:#181818;stroke-width:1;" width="10" x="774.4653" y="973.9219"/></g><g class="message" data-participant-1="Learner" data-participant-2="WebUI"><polygon fill="#2F5D8A" points="230.7754,145.7266,240.7754,149.7266,230.7754,153.7266,234.7754,149.7266" style="stroke:#2F5D8A;stroke-width:1;"/><line style="stroke:#2F5D8A;stroke-width:1;" x1="59.9951" x2="236.7754" y1="149.7266" y2="149.7266"/><text fill="#000000" font-family="sans-serif" font-size="13" lengthAdjust="spacing" textLength="93.4185" x="66.9951" y="144.6606">Open exercise</text></g><g class="message" data-participant-1="WebUI" data-participant-2="Backend"><polygon fill="#2F5D8A" points="448.5645,174.8594,458.5645,178.8594,448.5645,182.8594,452.5645,178.8594" style="stroke:#2F5D8A;stroke-width:1;"/><line style="stroke:#2F5D8A;stroke-width:1;" x1="252.7754" x2="454.5645" y1="178.8594" y2="178.8594"/><text fill="#000000" font-family="sans-serif" font-size="13" lengthAdjust="spacing" textLength="128.8638" x="259.7754" y="173.7935">GET /exercises/{id}</text></g><path d="M10,193.8594 L156.0293,193.8594 L156.0293,200.9922 L146.0293,210.9922 L10,210.9922 L10,193.8594" fill="#F7F0D3" style="stroke:#C5AF59;stroke-width:1.5;"/><rect fill="none" height="237.8672" style="stroke:#C5AF59;stroke-width:1.5;" width="526.0444" x="10" y="193.8594"/><text fill="#000000" font-family="sans-serif" font-size="13" font-weight="bold" lengthAdjust="spacing" textLength="101.0293" x="25" y="206.9263">Load Exercise</text><path d="M20,217.9922 L84.4429,217.9922 L84.4429,225.125 L74.4429,235.125 L20,235.125 L20,217.9922" fill="#F7F0D3" style="stroke:#C5AF59;stroke-width:1.5;"/><rect fill="none" height="206.7344" style="stroke:#C5AF59;stroke-width:1.5;" width="506.0444" x="20" y="217.9922"/><text fill="#000000" font-family="sans-serif" font-size="13" font-weight="bold" lengthAdjust="spacing" textLength="19.4429" x="35" y="231.0591">alt</text><text fill="#000000" font-family="sans-serif" font-size="11" font-weight="bold" lengthAdjust="spacing" textLength="104.2852" x="99.4429" y="230.2026">[Exercise Found]</text><g class="message" data-participant-1="Backend" data-participant-2="WebUI"><polygon fill="#2F5D8A" points="263.7754,252.2578,253.7754,256.2578,263.7754,260.2578,259.7754,256.2578" style="stroke:#2F5D8A;stroke-width:1;"/><line style="stroke:#2F5D8A;stroke-width:1;stroke-dasharray:2,2;" x1="257.7754" x2="464.5645" y1="256.2578" y2="256.2578"/><text fill="#000000" font-family="sans-serif" font-size="13" lengthAdjust="spacing" textLength="156.0571" x="269.7754" y="251.1919">200 OK (problem, tests)</text></g><g class="message" data-participant-1="WebUI" data-participant-2="Monaco"><polygon fill="#2F5D8A" points="353.9048,281.3906,363.9048,285.3906,353.9048,289.3906,357.9048,285.3906" style="stroke:#2F5D8A;stroke-width:1;"/><line style="stroke:#2F5D8A;stroke-width:1;" x1="252.7754" x2="359.9048" y1="285.3906" y2="285.3906"/><text fill="#000000" font-family="sans-serif" font-size="13" lengthAdjust="spacing" textLength="89.6226" x="259.7754" y="280.3247">Load problem</text></g><g class="message" data-participant-1="Monaco" data-participant-2="WebUI"><polygon fill="#2F5D8A" points="258.7754,310.5234,248.7754,314.5234,258.7754,318.5234,254.7754,314.5234" style="stroke:#2F5D8A;stroke-width:1;"/><line style="stroke:#2F5D8A;stroke-width:1;stroke-dasharray:2,2;" x1="252.7754" x2="369.9048" y1="314.5234" y2="314.5234"/><text fill="#000000" font-family="sans-serif" font-size="13" lengthAdjust="spacing" textLength="37.2544" x="264.7754" y="309.4575">ready</text></g><line style="stroke:#C5AF59;stroke-width:1;stroke-dasharray:2,2;" x1="20" x2="526.0444" y1="323.5234" y2="323.5234"/><text fill="#000000" font-family="sans-serif" font-size="11" font-weight="bold" lengthAdjust="spacing" textLength="130.1362" x="25" y="333.7339">[Exercise Not Found]</text><g class="message" data-participant-1="Backend" data-participant-2="WebUI"><polygon fill="#2F5D8A" points="258.7754,354.4609,248.7754,358.4609,258.7754,362.4609,254.7754,358.4609" style="stroke:#2F5D8A;stroke-width:1;"/><line style="stroke:#2F5D8A;stroke-width:1;stroke-dasharray:2,2;" x1="252.7754" x2="464.5645" y1="358.4609" y2="358.4609"/><text fill="#000000" font-family="sans-serif" font-size="13" lengthAdjust="spacing" textLength="169.8062" x="264.7754" y="353.395">404 Not Found / 500 Error</text></g><g class="message" data-participant-1="WebUI" data-participant-2="Learner"><polygon fill="#2F5D8A" points="70.9951,398.7266,60.9951,402.7266,70.9951,406.7266,66.9951,402.7266" style="stroke:#2F5D8A;stroke-width:1;"/><line style="stroke:#2F5D8A;stroke-width:1;stroke-dasharray:2,2;" x1="64.9951" x2="246.7754" y1="402.7266" y2="402.7266"/><text fill="#000000" font-family="sans-serif" font-size="13" lengthAdjust="spacing" textLength="133.7515" x="76.9951" y="382.5278">Show error message</text><text fill="#000000" font-family="sans-serif" font-size="13" lengthAdjust="spacing" textLength="156.1714" x="76.9951" y="397.6606">("Exercise unavailable")</text></g><g class="message" data-participant-1="Learner" data-participant-2="WebUI"><polygon fill="#2F5D8A" points="235.7754,412.7266,245.7754,416.7266,235.7754,420.7266,239.7754,416.7266" style="stroke:#2F5D8A;stroke-width:1;"/><line style="stroke:#2F5D8A;stroke-width:1;stroke-dasharray:2,2;" x1="59.9951" x2="241.7754" y1="416.7266" y2="416.7266"/></g><g class="message" data-participant-1="Learner" data-participant-2="WebUI"><polygon fill="#2F5D8A" points="230.7754,455.8594,240.7754,459.8594,230.7754,463.8594,234.7754,459.8594" style="stroke:#2F5D8A;stroke-width:1;"/><line style="stroke:#2F5D8A;stroke-width:1;" x1="59.9951" x2="236.7754" y1="459.8594" y2="459.8594"/><text fill="#000000" font-family="sans-serif" font-size="13" lengthAdjust="spacing" textLength="30.9766" x="66.9951" y="454.7935">Click</text><text fill="#000000" font-family="sans-serif" font-size="13" font-weight="bold" lengthAdjust="spacing" textLength="28.52" x="102.104" y="454.7935">Run</text></g><g class="message" data-participant-1="WebUI" data-participant-2="Backend"><polygon fill="#2F5D8A" points="448.5645,484.9922,458.5645,488.9922,448.5645,492.9922,452.5645,488.9922" style="stroke:#2F5D8A;stroke-width:1;"/><line style="stroke:#2F5D8A;stroke-width:1;" x1="252.7754" x2="454.5645" y1="488.9922" y2="488.9922"/><text fill="#000000" font-family="sans-serif" font-size="13" lengthAdjust="spacing" textLength="116.6255" x="259.7754" y="483.9263">POST /run {code}</text></g><g class="message" data-participant-1="Backend" data-participant-2="Runner"><polygon fill="#2F5D8A" points="663.5615,514.125,673.5615,518.125,663.5615,522.125,667.5615,518.125" style="stroke:#2F5D8A;stroke-width:1;"/><line style="stroke:#2F5D8A;stroke-width:1;" x1="470.5645" x2="669.5615" y1="518.125" y2="518.125"/><text fill="#000000" font-family="sans-serif" font-size="13" lengthAdjust="spacing" textLength="127.6323" x="477.5645" y="513.0591">Execute in sandbox</text></g><path d="M183.7588,533.125 L333.7046,533.125 L333.7046,540.2578 L323.7046,550.2578 L183.7588,550.2578 L183.7588,533.125" fill="#F7F0D3" style="stroke:#C5AF59;stroke-width:1.5;"/><rect fill="none" height="237.8672" style="stroke:#C5AF59;stroke-width:1.5;" width="569.3062" x="183.7588" y="533.125"/><text fill="#000000" font-family="sans-serif" font-size="13" font-weight="bold" lengthAdjust="spacing" textLength="104.9458" x="198.7588" y="546.1919">Run Execution</text><path d="M193.7588,557.2578 L258.2017,557.2578 L258.2017,564.3906 L248.2017,574.3906 L193.7588,574.3906 L193.7588,557.2578" fill="#F7F0D3" style="stroke:#C5AF59;stroke-width:1.5;"/><rect fill="none" height="206.7344" style="stroke:#C5AF59;stroke-width:1.5;" width="549.3062" x="193.7588" y="557.2578"/><text fill="#000000" font-family="sans-serif" font-size="13" font-weight="bold" lengthAdjust="spacing" textLength="19.4429" x="208.7588" y="570.3247">alt</text><text fill="#000000" font-family="sans-serif" font-size="11" font-weight="bold" lengthAdjust="spacing" textLength="158.9575" x="273.2017" y="569.4683">[Compile / Runtime Error]</text><g class="message" data-participant-1="Runner" data-participant-2="Backend"><polygon fill="#2F5D8A" points="481.5645,591.5234,471.5645,595.5234,481.5645,599.5234,477.5645,595.5234" style="stroke:#2F5D8A;stroke-width:1;"/><line style="stroke:#2F5D8A;stroke-width:1;stroke-dasharray:2,2;" x1="475.5645" x2="674.5615" y1="595.5234" y2="595.5234"/><text fill="#000000" font-family="sans-serif" font-size="13" lengthAdjust="spacing" textLength="80.939" x="487.5645" y="590.4575">error(stderr)</text></g><g class="message" data-participant-1="Backend" data-participant-2="WebUI"><polygon fill="#2F5D8A" points="263.7754,620.6563,253.7754,624.6563,263.7754,628.6563,259.7754,624.6563" style="stroke:#2F5D8A;stroke-width:1;"/><line style="stroke:#2F5D8A;stroke-width:1;stroke-dasharray:2,2;" x1="257.7754" x2="459.5645" y1="624.6563" y2="624.6563"/><text fill="#000000" font-family="sans-serif" font-size="13" lengthAdjust="spacing" textLength="95.4497" x="269.7754" y="619.5903">error response</text></g><g class="message" data-participant-1="WebUI" data-participant-2="Monaco"><polygon fill="#2F5D8A" points="358.9048,649.7891,368.9048,653.7891,358.9048,657.7891,362.9048,653.7891" style="stroke:#2F5D8A;stroke-width:1;"/><line style="stroke:#2F5D8A;stroke-width:1;" x1="252.7754" x2="364.9048" y1="653.7891" y2="653.7891"/><text fill="#000000" font-family="sans-serif" font-size="13" lengthAdjust="spacing" textLength="76.54" x="259.7754" y="648.7231">show stderr</text></g><line style="stroke:#C5AF59;stroke-width:1;stroke-dasharray:2,2;" x1="193.7588" x2="743.0649" y1="662.7891" y2="662.7891"/><text fill="#000000" font-family="sans-serif" font-size="11" font-weight="bold" lengthAdjust="spacing" textLength="140.4595" x="198.7588" y="672.9995">[Successful Execution]</text><g class="message" data-participant-1="Runner" data-participant-2="Backend"><polygon fill="#2F5D8A" points="481.5645,693.7266,471.5645,697.7266,481.5645,701.7266,477.5645,697.7266" style="stroke:#2F5D8A;stroke-width:1;"/><line style="stroke:#2F5D8A;stroke-width:1;stroke-dasharray:2,2;" x1="475.5645" x2="674.5615" y1="697.7266" y2="697.7266"/><text fill="#000000" font-family="sans-serif" font-size="13" lengthAdjust="spacing" textLength="180.9971" x="487.5645" y="692.6606">results(stdout, testsPassed)</text></g><g class="message" data-participant-1="Backend" data-participant-2="WebUI"><polygon fill="#2F5D8A" points="263.7754,722.8594,253.7754,726.8594,263.7754,730.8594,259.7754,726.8594" style="stroke:#2F5D8A;stroke-width:1;"/><line style="stroke:#2F5D8A;stroke-width:1;stroke-dasharray:2,2;" x1="257.7754" x2="459.5645" y1="726.8594" y2="726.8594"/><text fill="#000000" font-family="sans-serif" font-size="13" lengthAdjust="spacing" textLength="105.1743" x="269.7754" y="721.7935">execution result</text></g><g class="message" data-participant-1="WebUI" data-participant-2="Monaco"><polygon fill="#2F5D8A" points="358.9048,751.9922,368.9048,755.9922,358.9048,759.9922,362.9048,755.9922" style="stroke:#2F5D8A;stroke-width:1;"/><line style="stroke:#2F5D8A;stroke-width:1;" x1="252.7754" x2="364.9048" y1="755.9922" y2="755.9922"/><text fill="#000000" font-family="sans-serif" font-size="13" lengthAdjust="spacing" textLength="94.1294" x="259.7754" y="750.9263">display results</text></g><g class="message" data-participant-1="Learner" data-participant-2="WebUI"><polygon fill="#2F5D8A" points="230.7754,795.125,240.7754,799.125,230.7754,803.125,234.7754,799.125" style="stroke:#2F5D8A;stroke-width:1;"/><line style="stroke:#2F5D8A;stroke-width:1;" x1="59.9951" x2="236.7754" y1="799.125" y2="799.125"/><text fill="#000000" font-family="sans-serif" font-size="13" lengthAdjust="spacing" textLength="30.9766" x="66.9951" y="794.0591">Click</text><text fill="#000000" font-family="sans-serif" font-size="13" font-weight="bold" lengthAdjust="spacing" textLength="52.1396" x="102.104" y="794.0591">Submit</text></g><g class="message" data-participant-1="WebUI" data-participant-2="Backend"><polygon fill="#2F5D8A" points="448.5645,824.2578,458.5645,828.2578,448.5645,832.2578,452.5645,828.2578" style="stroke:#2F5D8A;stroke-width:1;"/><line style="stroke:#2F5D8A;stroke-width:1;" x1="252.7754" x2="454.5645" y1="828.2578" y2="828.2578"/><text fill="#000000" font-family="sans-serif" font-size="13" lengthAdjust="spacing" textLength="122.4399" x="259.7754" y="823.1919">POST /submissions</text></g><g class="message" data-participant-1="Backend" data-participant-2="Runner"><polygon fill="#2F5D8A" points="663.5615,853.3906,673.5615,857.3906,663.5615,861.3906,667.5615,857.3906" style="stroke:#2F5D8A;stroke-width:1;"/><line style="stroke:#2F5D8A;stroke-width:1;" x1="470.5645" x2="669.5615" y1="857.3906" y2="857.3906"/><text fill="#000000" font-family="sans-serif" font-size="13" lengthAdjust="spacing" textLength="95.4497" x="477.5645" y="852.3247">Full evaluation</text></g><g class="message" data-participant-1="Runner" data-participant-2="Backend"><polygon fill="#2F5D8A" points="481.5645,882.5234,471.5645,886.5234,481.5645,890.5234,477.5645,886.5234" style="stroke:#2F5D8A;stroke-width:1;"/><line style="stroke:#2F5D8A;stroke-width:1;stroke-dasharray:2,2;" x1="475.5645" x2="679.5615" y1="886.5234" y2="886.5234"/><text fill="#000000" font-family="sans-serif" font-size="13" lengthAdjust="spacing" textLength="109.5732" x="487.5645" y="881.4575">evaluation result</text></g><g class="message" data-participant-1="Backend" data-participant-2="DB"><polygon fill="#2F5D8A" points="762.4653,911.6563,772.4653,915.6563,762.4653,919.6563,766.4653,915.6563" style="stroke:#2F5D8A;stroke-width:1;"/><line style="stroke:#2F5D8A;stroke-width:1;" x1="470.5645" x2="768.4653" y1="915.6563" y2="915.6563"/><text fill="#000000" font-family="sans-serif" font-size="13" lengthAdjust="spacing" textLength="111.668" x="477.5645" y="910.5903">Store submission</text></g><g class="message" data-participant-1="DB" data-participant-2="Backend"><polygon fill="#2F5D8A" points="481.5645,940.7891,471.5645,944.7891,481.5645,948.7891,477.5645,944.7891" style="stroke:#2F5D8A;stroke-width:1;"/><line style="stroke:#2F5D8A;stroke-width:1;stroke-dasharray:2,2;" x1="475.5645" x2="778.4653" y1="944.7891" y2="944.7891"/><text fill="#000000" font-family="sans-serif" font-size="13" lengthAdjust="spacing" textLength="18.7573" x="487.5645" y="939.7231">OK</text></g><g class="message" data-participant-1="Backend" data-participant-2="DB"><polygon fill="#2F5D8A" points="762.4653,969.9219,772.4653,973.9219,762.4653,977.9219,766.4653,973.9219" style="stroke:#2F5D8A;stroke-width:1;"/><line style="stroke:#2F5D8A;stroke-width:1;" x1="470.5645" x2="768.4653" y1="973.9219" y2="973.9219"/><text fill="#000000" font-family="sans-serif" font-size="13" lengthAdjust="spacing" textLength="143.3936" x="477.5645" y="968.856">Update XP + Progress</text></g><g class="message" data-participant-1="DB" data-participant-2="Backend"><polygon fill="#2F5D8A" points="481.5645,999.0547,471.5645,1003.0547,481.5645,1007.0547,477.5645,1003.0547" style="stroke:#2F5D8A;stroke-width:1;"/><line style="stroke:#2F5D8A;stroke-width:1;stroke-dasharray:2,2;" x1="475.5645" x2="778.4653" y1="1003.0547" y2="1003.0547"/><text fill="#000000" font-family="sans-serif" font-size="13" lengthAdjust="spacing" textLength="18.7573" x="487.5645" y="997.9888">OK</text></g><g class="message" data-participant-1="Backend" data-participant-2="WebUI"><polygon fill="#2F5D8A" points="263.7754,1028.1875,253.7754,1032.1875,263.7754,1036.1875,259.7754,1032.1875" style="stroke:#2F5D8A;stroke-width:1;"/><line style="stroke:#2F5D8A;stroke-width:1;stroke-dasharray:2,2;" x1="257.7754" x2="464.5645" y1="1032.1875" y2="1032.1875"/><text fill="#000000" font-family="sans-serif" font-size="13" lengthAdjust="spacing" textLength="128.6035" x="269.7754" y="1027.1216">200 OK {score, XP}</text></g><g class="message" data-participant-1="WebUI" data-participant-2="Learner"><polygon fill="#2F5D8A" points="70.9951,1057.3203,60.9951,1061.3203,70.9951,1065.3203,66.9951,1061.3203" style="stroke:#2F5D8A;stroke-width:1;"/><line style="stroke:#2F5D8A;stroke-width:1;stroke-dasharray:2,2;" x1="64.9951" x2="246.7754" y1="1061.3203" y2="1061.3203"/><text fill="#000000" font-family="sans-serif" font-size="13" lengthAdjust="spacing" textLength="158.7803" x="76.9951" y="1056.2544">Show score + XP gained</text></g><!--SRC=[fLRBRjiw4DthAmRk8eysY6zIzs7W5f1bAHNgs88VJHVPq19Z4v59bQII5a7-lKEzB5jsd7iRRQpXcPapCuUZ7C6_B_nPHt0r6FNi0Ko_kjSkd8Cp6ep64xI_wARk6K-892kOa_1-8KNA8qV4Gi8RppPF3Q7epvJoaCAJ1M1BAHuBv8NNwN-oqJXWTtJ0EEq96L6vztGxK_-p-ydh828WKhEG9OJhZH3_z2wTpkSjm7OKzuFhPb7iK0kvuN_PDqzrrAZqmZnuV8NMf7dyqMltBwlZUc2dOtj8xDcoDDCnXTFJG98GAL9mHCJu0XwPNiAru2GKu4OCqv-UMeUcSWI1FPxwZX_Om-d16H9J5BG6b4XEPGk8Wk8tSlUy2yUnadNVe7L3vp3pR_cn9mNNb4SdcG-QPxvf8zRhRNha_6zvNa26BafwuxNHOGjkEeXXmGxy35k-8niSqeTDCFQ9mZZbIFUMJwXymEPbNhajAw6D9KH4apbH55hzubU6wlSooXZu5LszjlqXU8FH3TpuqwzW3wRkU6XF_U_k8L-hxEZPbw9HNHWbb0FzHMN853LJO0z4q_pOid8Kmilgkt3bJk6yT53dJonwNhiLCCiosajW84W4RXaSWCIwUWNFg1EDK0K_g_6wQBTXz0sE4odcCLsz0qsLLYSPFgBDXCPUiItcsiq9524oIEMOGp9RWQvdbvH4lxTprLngrg9J03J6eghgXa8VgF1z-_qQXRkkWnMxk93aQsh4EEKmkp1PYaUWnXLML2coe7WlMXMLb9C7mcA2JMYTxAKFS0HzHXPcIM8s1KigATnXJBra2XAYbnbAKfrARkf5IgQcRDIlqEruDiHztdSpxHw2xr2g4xFm7fSJNYdSFbi5x11gC9gWKcNAuId4wxb3fTLKlfJtj6i66AQ8OHmKuT5S_5hxvQ1ItFXMe9dWXRWTiKeOhj1pSwhPYjOcMgGuso2PJUrOQTp6ycIlLFBPIgeImREBj4lhogWWZrIgSPA68GhYBeqtcExXWl7JM2l3HgIwk741KOf6Br0hunRkUyX5J2Kn-LtcQCgd9icYpJjkG5Et1rKtcVMk_Sd47mt_LdUJTBvY-Zz8Jna7fR0tQiU6t2K-BurZe0yaJaasgksMx9PGXIz7qEnbFHj-R71bu2UGmfhXEbM_Po5YCyNeMpqc8XhnPabaZdu4y1O2AHR8HFtlcCtFm9CAaUyxZF-yInVMtgsO-I4d9BOW-6zRKqD_0000]--></g></svg>